<?xml version="1.0" encoding="utf-8"?>
<!-- Generator: Adobe Illustrator 24.0.0, SVG Export Plug-In . SVG Version: 6.00 Build 0)  -->
<svg version="1.1" xmlns="http://www.w3.org/2000/svg" xmlns:xlink="http://www.w3.org/1999/xlink" x="0px" y="0px"
	 viewBox="0 0 180 180" style="enable-background:new 0 0 180 180;" xml:space="preserve">
<style type="text/css">
	.st0{display:none;}
	.st1{display:inline;fill:#FF811C;}
	.st2{display:inline;fill:#FF811C;stroke:#FFFFFF;stroke-width:14.074;stroke-miterlimit:10;}
	.st3{display:inline;opacity:0.15;fill:#FFFFFF;}
	.st4{display:inline;fill:#1E252B;}
	.st5{display:inline;fill:#FFFFFF;}
	.st6{display:inline;fill:#2D2E82;}
	.st7{fill:#FF811C;stroke:#FFFFFF;stroke-width:14.074;stroke-miterlimit:10;}
	.st8{opacity:0.33;fill:#35A8E0;}
	.st9{display:inline;}
	.st10{fill:#FF811C;}
	.st11{fill:#FFFFFF;}
	.st12{display:inline;fill:#35A8E0;}
	.st13{display:inline;opacity:0.1;fill:#1D70B7;}
	.st14{opacity:0.41;fill:#FF811C;}
	.st15{opacity:0.15;fill:#FFFFFF;}
	.st16{display:none;fill:#FF811C;}
	.st17{opacity:0.1;fill:#FFFFFF;}
	.st18{fill:#1E252B;}
	.st19{font-family:'Rubik-Regular';}
	.st20{font-size:10.8205px;}
</style>
<g id="Camada_1" class="st0">
</g>
<g id="Camada_5" class="st0">
</g>
<g id="Camada_2" class="st0">
</g>
<g id="Camada_2_cópia" class="st0">
</g>
<g id="Camada_4" class="st0">
</g>
<g id="Camada_4_cópia">
	<g>
		<path class="st18" d="M148.5,37.1c-5.5-2.3-10.2-0.4-11.7,0.4c-9.2,4.6-12.2,15.7-16.3,24.2c-1.4,2.9-2.8,6.2-4.6,9.2
			c-2.7,4.3-6.5,7.8-13.3,8.2C92.1,79.5,86.3,62.3,82,50.7c-2.3-6.2-4.7-7.7-8.5-7.7c-3,0-5.4,1.8-6.2,2.6
			c-6.2,5.9-9,30.5-16.5,32.2c-6.4,1.4-9-3.9-18.6-24.7c-1.4-3.2-3.5-4.2-5.1-4.1c-3.5,0.1-5.4,2.6-5.7,5.1
			C20.6,60.1,36.2,113,38,119.2c0.2,0.6,1.1,4.3,3,7.5c1.1,1.8,2.5,3.4,4.3,4.2c5.9,2.8,11.2-1.1,12.5-4.2
			c2.3-5.2,5.7-21.9,14.7-21.8c4.9,0,7.5,5.3,11,12.2c3.7,7.3,7.5,16,10.7,21.6c0.1,0.1,0.1,0.2,0.2,0.3c1.5,2.5,3.5,5.6,7.4,6
			c5.5,0.6,8.5-2.7,10.1-5.1c0.2-0.3,0.4-0.6,0.5-0.8c7-11.6,13.2-23.1,25.4-46.2c10.5-19.9,17.1-32.4,18.7-36.5
			C157.7,53,160.1,42,148.5,37.1z M77.5,93l-10.4-0.1c-3.5,0-5.7-1.6-3.9-4.6l7.5-16c0.9-1.6,2.5-1.6,3.4,0l7.4,16.2
			C83.2,91.5,81,93,77.5,93z"/>
		<path class="st17" d="M156.3,56.5c-1.6,4.1-8.2,16.5-18.7,36.5c-12.2,23.2-18.4,34.7-25.4,46.2c-0.2,0.3-0.3,0.5-0.5,0.8
			c-1.6,2.4-4.5,5.6-10.1,5.1c-3.8-0.4-5.9-3.5-7.4-6c1.3-4.4,2.6-9.1,4.1-13.8c0-0.2,0.1-0.3,0.1-0.5c5.1-17,11.1-36,17.5-54.1
			c1.9-2.9,3.2-6.3,4.6-9.2c4.2-8.5,7.1-19.6,16.3-24.2c1.5-0.7,6.2-2.7,11.7-0.4C160.1,42,157.7,53,156.3,56.5z"/>
		<g>
			<path class="st18" d="M102.8,144.9c-0.4,0-0.8,0-1.2-0.1c-3.8-0.4-5.7-3.4-7.3-6.1c-1.8-3.2-3.8-7.4-5.9-11.9
				c-1.6-3.3-3.2-6.7-4.8-9.8l-0.4-0.8c-3.3-6.5-5.9-11.6-10.9-11.6c-7.5,0-11.1,10.8-13.5,17.9c-0.6,1.7-1.1,3.1-1.5,4.1
				c-0.9,2-4,4.9-8.1,4.9c-1.3,0-2.7-0.3-4-0.9c-1.5-0.7-2.9-2.1-4.1-4.1c-1.5-2.6-0.9-4,0.1-6.5c0.1-0.3,0.3-0.6,0.4-0.9
				c2-4.9,5.5-13.3,9.2-22.2c6.3-15.4,13.5-32.8,14.8-35.8c2.1-5,4.1-6.8,7.4-6.9c0.1,0,0.2,0,0.3,0c4,0,5.8,2.7,7.9,8.1
				c4.8,12.6,27,64.9,29.8,71.1c1,2.4,1.8,4.1,0.3,6.5C109.2,143.3,106.4,144.9,102.8,144.9C102.8,144.9,102.8,144.9,102.8,144.9z
				 M72.4,70.8c-0.8,0-1.4,0.5-2,1.3l-7.5,16.1c-0.9,1.6-0.7,2.6-0.4,3.3c0.6,1.1,2.3,1.8,4.5,1.8c0,0,10.4,0.1,10.4,0.1
				c2.3,0,3.9-0.6,4.6-1.7c0.4-0.6,0.6-1.7-0.3-3.3l-7.4-16.1C73.8,71.3,73.1,70.8,72.4,70.8z"/>
			<path class="st11" d="M73.5,54.6c3.9,0,5.5,2.5,7.6,7.9c4.8,12.6,27,64.9,29.8,71.1c1,2.4,1.7,3.9,0.3,6.2
				c-2.2,3.3-4.9,4.8-8.3,4.8c-0.4,0-0.8,0-1.2-0.1c-3.6-0.4-5.5-3.3-7.1-6c-1.8-3.2-3.8-7.4-5.9-11.9c-1.6-3.3-3.2-6.6-4.8-9.8
				l-0.4-0.8c-3.4-6.6-6-11.7-11.1-11.8l0,0h0c-7.6,0-11.3,10.9-13.7,18.1c-0.6,1.7-1,3.1-1.5,4.1c-0.9,2-3.8,4.7-7.8,4.7
				c-1.3,0-2.6-0.3-3.8-0.9c-1.5-0.7-2.8-2-4-4c-1.4-2.5-0.9-3.7,0.1-6.2c0.1-0.3,0.3-0.6,0.4-0.9c2-4.9,5.5-13.4,9.2-22.4
				C57.6,81.6,64.7,64.3,66,61.3c2.1-4.8,3.9-6.6,7.2-6.7C73.3,54.6,73.4,54.6,73.5,54.6 M62.6,88c-1,1.7-0.8,2.9-0.4,3.6
				c0.7,1.2,2.4,1.9,4.8,1.9l10.4,0.1l0.1,0c2.4,0,4-0.7,4.7-1.9c0.4-0.7,0.7-1.8-0.3-3.6L74.6,72l0,0l0,0c-0.6-1-1.4-1.5-2.2-1.5
				c-0.9,0-1.7,0.5-2.2,1.5l0,0l0,0L62.6,88 M73.5,53.9c-0.1,0-0.2,0-0.3,0c-3.7,0.1-5.6,2.2-7.7,7.1c-2,4.8-18.4,44.7-24,58.1
				c-1.3,3.1-2.3,4.6-0.5,7.7c1.1,1.8,2.5,3.4,4.3,4.2c1.4,0.7,2.8,1,4.1,1c4.1,0,7.4-2.8,8.4-5.1c2.3-5.2,5.7-21.8,14.7-21.8
				c0,0,0,0,0,0c4.9,0,7.5,5.3,11,12.2c3.7,7.3,7.5,16,10.7,21.6c1.5,2.6,3.6,5.9,7.6,6.3c0.4,0,0.8,0.1,1.2,0.1
				c4.8,0,7.4-2.9,8.9-5.1c1.6-2.6,0.8-4.4-0.3-6.8c-2.9-6.5-25.1-58.7-29.8-71.1C79.7,57,77.9,53.9,73.5,53.9L73.5,53.9z M77.6,93
				C77.5,93,77.5,93,77.6,93l-10.5-0.1c-3.5,0-5.7-1.6-3.9-4.6l7.5-16.1c0.5-0.8,1.1-1.2,1.7-1.2c0.6,0,1.2,0.4,1.7,1.2l7.4,16.2
				C83.2,91.5,81,93,77.6,93L77.6,93z"/>
		</g>
		<g class="st0">
			<g class="st9">
				<path class="st11" d="M169.6,50.5c-0.1,0-0.2,0-0.2-0.1c-0.1-0.1-0.1-0.1-0.1-0.2v-8.5c0-0.1,0-0.2,0.1-0.2
					c0.1-0.1,0.1-0.1,0.2-0.1h3.2c1,0,1.8,0.2,2.3,0.7c0.6,0.5,0.9,1.1,0.9,2c0,0.7-0.2,1.2-0.5,1.6c-0.3,0.4-0.8,0.7-1.4,0.9l2,3.5
					c0,0.1,0,0.1,0,0.1c0,0.1,0,0.1-0.1,0.2c-0.1,0.1-0.1,0.1-0.2,0.1h-0.6c-0.1,0-0.3,0-0.3-0.1c-0.1-0.1-0.1-0.2-0.2-0.2l-1.9-3.3
					h-2.3v3.4c0,0.1,0,0.2-0.1,0.2c-0.1,0.1-0.1,0.1-0.2,0.1H169.6z M170.5,45.8h2.1c0.7,0,1.1-0.1,1.5-0.4c0.3-0.3,0.5-0.7,0.5-1.2
					c0-0.5-0.2-0.9-0.5-1.2c-0.3-0.3-0.8-0.4-1.5-0.4h-2.1V45.8z"/>
			</g>
			<g class="st9">
				<path class="st11" d="M172.6,38c4.4,0,8,3.6,8,8c0,4.4-3.6,8-8,8c-4.4,0-8-3.6-8-8C164.7,41.6,168.2,38,172.6,38 M172.6,36.8
					c-5.1,0-9.2,4.1-9.2,9.2s4.1,9.2,9.2,9.2c5.1,0,9.2-4.1,9.2-9.2S177.7,36.8,172.6,36.8L172.6,36.8z"/>
			</g>
		</g>
		<text transform="matrix(1 0 0 1 16.7695 143.1667)" class="st18 st19 st20">Work Attack</text>
	</g>
</g>
</svg>
