<?xml version="1.0" encoding="utf-8"?>
<!-- Generator: Adobe Illustrator 24.0.0, SVG Export Plug-In . SVG Version: 6.00 Build 0)  -->
<svg version="1.1" xmlns="http://www.w3.org/2000/svg" xmlns:xlink="http://www.w3.org/1999/xlink" x="0px" y="0px"
	 viewBox="0 0 100 100" style="enable-background:new 0 0 100 100;" xml:space="preserve">
<style type="text/css">
	.st0{display:none;}
	.st1{display:inline;fill:#FF811C;}
	.st2{display:inline;fill:#FF811C;stroke:#FFFFFF;stroke-width:14.074;stroke-miterlimit:10;}
	.st3{display:inline;opacity:0.15;fill:#FFFFFF;}
	.st4{display:inline;fill:#1E252B;}
	.st5{display:inline;fill:#FFFFFF;}
	.st6{display:inline;fill:#2D2E82;}
	.st7{fill:#FF811C;stroke:#FFFFFF;stroke-width:14.074;stroke-miterlimit:10;}
	.st8{opacity:0.33;fill:#35A8E0;}
	.st9{display:inline;}
	.st10{fill:#FF811C;}
	.st11{fill:#FFFFFF;}
	.st12{display:inline;fill:#35A8E0;}
	.st13{display:inline;opacity:0.1;fill:#1D70B7;}
	.st14{opacity:0.41;fill:#FF811C;}
	.st15{opacity:0.15;fill:#FFFFFF;}
	.st16{display:none;fill:#FF811C;}
	.st17{opacity:0.1;fill:#FFFFFF;}
	.st18{fill:#1E252B;}
	.st19{font-family:'Rubik-Regular';}
	.st20{font-size:6.2361px;}
</style>
<g id="Camada_1" class="st0">
</g>
<g id="Camada_5" class="st0">
</g>
<g id="Camada_2" class="st0">
	<path class="st1" d="M2901.5-457.2c-0.1-0.7-0.2-1.4-0.2-2.1c-1.1-9.8-2.6-19.5-4.5-29.1c-0.7-3.4-1.4-6.7-2.2-10
		c-0.8-3.8-1.8-7.6-2.8-11.3c-8.5-32-21.5-62.8-39.8-91.3c-55.1-86.4-157.5-134.5-259.3-127.2c-3.7,0.3-7.5,0.6-11.2,1.1
		c-34,3.8-67.4,13.9-98,29.3c-192,96.2-247.4,331.7-341.3,505.7c-77.9,144.5-192.9,343.2-375.3,363
		c-180.7,19.6-249.2-193-308.1-321.7c-15.7-34.4-31.1-69-47.3-103.2c-12.2-26-24.5-52-37-77.7c-34.1-70.4-60.9-149.8-117.4-206.1
		c-30-30-66.4-43.7-102.9-43.5c-42.1,0.2-84.3,18.8-117.4,52.1c-62.9,63.2-85.2,154.3-115.7,235.3
		c-32.8,87.2-65.7,174.4-101.6,260.5c-28.2,67.5-56,159.1-137.7,177.4c-20.9,4.6-43.3,1.4-63.4-6.3
		c-102-39.3-155.5-155.1-203.3-245.2c-27.6-52-51.8-106-74.4-160.2c-21.4-51.4-41.9-104.1-74.5-149.8
		c-19.2-26.7-52.3-42.3-85.4-41.3c-59.1,1.6-99.8,51.8-113.4,105.5C51.7-291.3,64.4-224.6,85-165.2c13.9,40,27.7,80.1,40.3,120.6
		c23.4,76.1,46.7,152.3,70.2,228.5c44.3,143.6,88.7,287.3,133,431c40,129.6,53.1,266.8,86.3,398.2c12.6,50.2,26.2,102.9,53.6,147.3
		c5.3,8.6,11.1,17,17.5,25.4c0.1,0.1,0.1,0.2,0.2,0.2c30.1,39.4,71.8,74.9,118.6,92.3c2.4,0.8,4.8,1.6,7.2,2.5
		c2.5,0.8,4.9,1.4,7.4,2.2c2.2,0.6,4.4,1.1,6.6,1.8c0.3,0.1,0.6,0.1,0.9,0.2c3.8,0.9,7.6,1.8,11.3,2.4c3,0.5,6,0.9,8.9,1.3
		c3.3,0.3,6.5,0.6,9.7,0.8c2.9,0.2,5.8,0.3,8.7,0.3h1.4c2.6,0,5.2-0.1,7.6-0.3c5.5-0.2,10.7-0.8,15.8-1.8c1.5-0.3,3.1-0.5,4.6-0.8
		c2-0.4,3.9-0.8,5.9-1.3c2.4-0.6,4.7-1.2,7.1-2c47.9-13.8,84.7-50.4,111-93.4c15.8-25.8,28.5-53.3,39.5-81.4
		c28-70.8,46.4-145.6,79.3-214.7c36.8-77.1,103-179.5,196.9-177.8c3,0,5.9,0.2,8.9,0.4c1.4,0.1,3,0.3,4.4,0.5
		c7.5,0.8,15.3,2.5,23.3,4.8c76.4,22.4,118.9,92.8,153.1,163.8c14.1,29.4,26.8,58.8,39.9,85.2c75,150.6,144.9,304.3,223.7,452.7
		c21.1,39.6,48.1,75,83,99c0.1,0.1,0.3,0.2,0.4,0.3c11.6,8,24.1,15.5,37.5,21c15.9,6.7,33,10.9,51.7,10.5c0.9,0,1.8,0,2.7-0.1
		c0.2-0.1,0.3-0.1,0.4,0c55-2.1,106.4-25.9,149.5-59.6c8.5-6.5,16.5-13.4,24.2-20.6c1.9-1.8,3.7-3.5,5.6-5.5c0.1,0,0.1,0,0.1-0.1
		c118.8-158.4,716.4-1308.6,775.8-1424.3c4.1-8.1,7.5-14.9,10.3-20.3c0.6-1,1.1-2.1,1.7-3.1c24.6-48.1,49.4-96.4,74.1-144.6
		c20.8-40.4,42.2-79.1,59.7-119.3c1.6-3.9,3.4-7.8,4.9-11.9c2.3-5.3,4.3-10.5,6.3-15.9c0.7-1.9,1.4-3.7,2.1-5.6
		c1-2.6,1.9-5.1,2.8-7.6c7.9-22.8,14.2-46.5,18.1-71.7C2904.2-389.5,2905.2-423.7,2901.5-457.2z M1241.2,464.3l-217.1-1.4
		c-73.3-0.5-119-33.1-81.7-96.2l156.7-335.8c19.6-33.5,51.3-33.3,70.4,0.5l154.4,338C1360.3,432.9,1314.4,464.8,1241.2,464.3z"/>
</g>
<g id="Camada_2_cópia" class="st0">
	<path class="st8" d="M2727.4-705.5c-114.3-48.9-213.3-7.7-243.9,7.6c-192,96.2-247.4,331.7-341.3,505.7
		c-77.9,144.5-182.6,326.5-375.3,363c-217,41.1-333.3-351.6-431.8-592.3c-66.4-162.2-144.4-160.2-180.9-159.9
		c-42.1,0.2-82.3,20.9-117.4,52.1C920.3-425.9,834.1,129.9,681.8,144c-131.9,12.2-189-82.4-388.7-517.6
		c-30.2-65.9-73.4-87-106.5-86.4C122-458.9,83.8-406.3,67.3-353.4c-32,103,48,285.1,68.5,344.5c13.9,40,245.7,890.5,278.9,1021.9
		c5.3,21.3,28.6,172.5,151.5,246.3c126,75.8,236.2-45.4,252.6-69.3c68.4-99.4,127.7-475.2,315.7-473.9
		c103,0.7,163.2,108.2,229.6,254.8c70.5,155.5,156.9,334.3,223.7,452.7c9,16,68,121.5,151.4,130.9c110.6,12.5,198-75.3,228.8-122.5
		c156.6-240.6,276.4-482.9,531.4-967.6c219.5-417.2,389.7-751.4,391.5-763.1C2896.3-332.5,2969.7-601.8,2727.4-705.5z M1241.2,464.3
		l-217.1-1.4c-73.3-0.5-119-33.1-81.7-96.2l156.7-335.8c19.6-33.5,51.3-33.3,70.4,0.5l154.4,338
		C1360.3,432.9,1314.4,464.8,1241.2,464.3z"/>
</g>
<g id="Camada_4" class="st0">
</g>
<g id="Camada_4_cópia">
	<g>
		<path class="st10" d="M83.2,19.3c-3.1-1.3-5.9-0.2-6.7,0.2c-5.3,2.6-7,9-9.4,13.9c-0.8,1.7-1.6,3.6-2.7,5.3
			c-1.6,2.5-3.8,4.5-7.7,4.7c-6.1,0.3-9.4-9.6-11.9-16.3c-1.3-3.6-2.7-4.5-4.9-4.5c-1.7,0-3.1,1.1-3.6,1.5
			c-3.6,3.4-5.2,17.6-9.5,18.5c-3.7,0.8-5.2-2.3-10.7-14.3c-0.8-1.8-2-2.4-2.9-2.4c-2,0-3.1,1.5-3.3,2.9c-0.4,3.5,8.5,34.1,9.6,37.6
			c0.1,0.4,0.6,2.5,1.7,4.3c0.6,1,1.4,2,2.5,2.4c3.4,1.6,6.4-0.7,7.2-2.4c1.3-3,3.3-12.6,8.5-12.6c2.8,0,4.3,3.1,6.3,7
			c2.2,4.2,4.3,9.2,6.2,12.5c0,0.1,0.1,0.1,0.1,0.2c0.8,1.5,2,3.2,4.3,3.5c3.2,0.3,4.9-1.6,5.8-2.9c0.1-0.2,0.2-0.3,0.3-0.5
			c4-6.7,7.6-13.3,14.6-26.7c6-11.5,9.8-18.7,10.8-21C88.5,28.5,89.9,22.2,83.2,19.3z M42.3,51.6l-6,0c-2,0-3.3-0.9-2.2-2.7l4.3-9.2
			c0.5-0.9,1.4-0.9,1.9,0l4.3,9.3C45.6,50.7,44.3,51.6,42.3,51.6z"/>
		<path class="st17" d="M87.7,30.5c-0.9,2.3-4.7,9.5-10.8,21c-7,13.4-10.6,20-14.6,26.7c-0.1,0.2-0.2,0.3-0.3,0.5
			c-0.9,1.4-2.6,3.2-5.8,2.9c-2.2-0.2-3.4-2-4.3-3.5c0.7-2.6,1.5-5.2,2.3-8c0-0.1,0.1-0.2,0.1-0.3c2.9-9.8,6.4-20.8,10.1-31.2
			c1.1-1.7,1.8-3.6,2.7-5.3c2.4-4.9,4.1-11.3,9.4-13.9c0.8-0.4,3.6-1.6,6.7-0.2C89.9,22.2,88.5,28.5,87.7,30.5z"/>
		<g>
			<path class="st10" d="M56.9,81.5c-0.2,0-0.4,0-0.7,0c-2.2-0.2-3.3-1.9-4.2-3.5c-1.1-1.9-2.2-4.3-3.4-6.8
				c-0.9-1.9-1.8-3.8-2.7-5.6L45.6,65c-1.9-3.7-3.4-6.7-6.3-6.7c-4.3,0-6.4,6.2-7.8,10.3c-0.3,1-0.6,1.8-0.9,2.4
				c-0.5,1.2-2.3,2.8-4.7,2.8c-0.8,0-1.5-0.2-2.3-0.5c-0.9-0.4-1.7-1.2-2.4-2.4c-0.9-1.5-0.5-2.3,0.1-3.7l0.2-0.5
				c1.2-2.8,3.1-7.5,5.2-12.6c3.7-8.9,7.9-19.1,8.6-20.8c1.2-2.9,2.3-3.9,4.3-4l0.2,0c2.3,0,3.3,1.6,4.5,4.7
				c2.8,7.3,15.6,37.4,17.2,41c0.6,1.4,1,2.3,0.2,3.8C60.6,80.5,58.9,81.5,56.9,81.5L56.9,81.5z M39.3,38.7c-0.4,0-0.8,0.3-1.1,0.8
				l-4.3,9.3c-0.5,0.9-0.4,1.5-0.2,1.9c0.4,0.7,1.3,1,2.6,1c0,0,6,0,6,0c1.3,0,2.3-0.4,2.6-1c0.2-0.4,0.3-1-0.2-1.9l-4.2-9.3
				C40.2,39,39.8,38.7,39.3,38.7z"/>
			<path class="st11" d="M40,29.4c2.2,0,3.2,1.5,4.4,4.6c2.8,7.3,15.6,37.4,17.2,41c0.6,1.4,1,2.3,0.2,3.6c-1.3,1.9-2.8,2.8-4.8,2.8
				c-0.2,0-0.4,0-0.7,0c-2.1-0.2-3.2-1.9-4.1-3.5c-1.1-1.9-2.2-4.3-3.4-6.8c-0.9-1.9-1.8-3.8-2.7-5.6l-0.2-0.4
				c-1.9-3.8-3.5-6.8-6.4-6.8c-4.4,0-6.5,6.3-7.9,10.4c-0.3,1-0.6,1.8-0.9,2.4c-0.5,1.1-2.2,2.7-4.5,2.7c-0.7,0-1.5-0.2-2.2-0.5
				c-0.8-0.4-1.6-1.2-2.3-2.3c-0.8-1.4-0.5-2.1,0.1-3.6c0.1-0.2,0.1-0.3,0.2-0.5C23,63.9,25,59,27.2,53.9c3.6-8.8,7.8-18.8,8.5-20.6
				c1.2-2.8,2.3-3.8,4.1-3.9C39.9,29.4,39.9,29.4,40,29.4 M42.3,51.9L42.3,51.9c1.4,0,2.3-0.4,2.7-1.1c0.2-0.4,0.4-1.1-0.2-2
				l-4.3-9.3c-0.3-0.6-0.8-0.9-1.3-0.9c-0.5,0-1,0.3-1.3,0.9l-4.3,9.2c-0.6,1-0.4,1.7-0.2,2.1c0.4,0.7,1.4,1.1,2.8,1.1L42.3,51.9
				L42.3,51.9 M40,29c-0.1,0-0.1,0-0.2,0c-2.1,0.1-3.3,1.3-4.4,4.1c-1.2,2.8-10.6,25.7-13.8,33.5c-0.7,1.8-1.3,2.7-0.3,4.4
				c0.6,1,1.4,2,2.5,2.4c0.8,0.4,1.6,0.6,2.4,0.6c2.4,0,4.2-1.6,4.8-2.9c1.3-3,3.3-12.6,8.4-12.6c0,0,0,0,0,0c2.8,0,4.3,3.1,6.3,7
				c2.2,4.2,4.3,9.2,6.2,12.5c0.8,1.5,2.1,3.4,4.4,3.6c0.2,0,0.5,0,0.7,0c2.7,0,4.3-1.7,5.1-2.9c0.9-1.5,0.5-2.5-0.2-3.9
				C60.2,71,47.4,40.9,44.7,33.8C43.5,30.8,42.5,29,40,29L40,29z M42.3,51.6C42.3,51.6,42.3,51.6,42.3,51.6l-6,0
				c-2,0-3.3-0.9-2.2-2.7l4.3-9.3c0.3-0.5,0.6-0.7,1-0.7c0.4,0,0.7,0.2,1,0.7l4.3,9.3C45.6,50.7,44.3,51.6,42.3,51.6L42.3,51.6z"/>
		</g>
		<g class="st0">
			<g class="st9">
				<path class="st11" d="M95.3,27.1c-0.1,0-0.1,0-0.1,0c0,0,0-0.1,0-0.1V22c0-0.1,0-0.1,0-0.1c0,0,0.1,0,0.1,0h1.8
					c0.6,0,1,0.1,1.3,0.4c0.3,0.3,0.5,0.7,0.5,1.2c0,0.4-0.1,0.7-0.3,0.9c-0.2,0.2-0.5,0.4-0.8,0.5l1.2,2c0,0,0,0.1,0,0.1
					c0,0,0,0.1,0,0.1c0,0-0.1,0-0.1,0h-0.4c-0.1,0-0.1,0-0.2-0.1c0,0-0.1-0.1-0.1-0.1L97.2,25h-1.3v1.9c0,0.1,0,0.1,0,0.1
					c0,0-0.1,0-0.1,0H95.3z M95.9,24.3h1.2c0.4,0,0.7-0.1,0.8-0.2c0.2-0.2,0.3-0.4,0.3-0.7c0-0.3-0.1-0.5-0.3-0.7
					c-0.2-0.2-0.5-0.2-0.8-0.2h-1.2V24.3z"/>
			</g>
			<g class="st9">
				<path class="st11" d="M97.1,19.9c2.5,0,4.6,2.1,4.6,4.6S99.7,29,97.1,29s-4.6-2.1-4.6-4.6S94.6,19.9,97.1,19.9 M97.1,19.1
					c-2.9,0-5.3,2.4-5.3,5.3s2.4,5.3,5.3,5.3c2.9,0,5.3-2.4,5.3-5.3S100.1,19.1,97.1,19.1L97.1,19.1z"/>
			</g>
		</g>
	</g>
</g>
</svg>
